<svg width="19" height="11" viewBox="0 0 19 11" fill="none" xmlns="http://www.w3.org/2000/svg">
<path d="M16.3881 2.86179C12.5724 -0.953932 6.36436 -0.953932 2.54863 2.86179L0 5.4101L2.61186 8.02196C4.51956 9.92967 7.02551 10.8838 9.53177 10.8838C12.038 10.8838 14.5437 9.92999 16.4517 8.02196L19.0003 5.47333L16.3881 2.86179ZM15.9976 7.56814C12.4322 11.1332 6.63106 11.1332 3.06568 7.56814L0.907635 5.4101L3.00245 3.31529C6.56784 -0.249776 12.3689 -0.249776 15.9343 3.31529L18.0924 5.47333L15.9976 7.56814Z" fill="#A6B1BE"/>
<path d="M9.1685 2.86426C7.92965 2.86426 6.92188 3.87203 6.92188 5.11088C6.92188 5.28804 7.06566 5.43183 7.24282 5.43183C7.41998 5.43183 7.56377 5.28804 7.56377 5.11088C7.56377 4.22603 8.28365 3.50615 9.1685 3.50615C9.34566 3.50615 9.48944 3.36237 9.48944 3.1852C9.48944 3.00804 9.34598 2.86426 9.1685 2.86426Z" fill="#A6B1BE"/>
<path d="M9.49261 1.25977C7.19207 1.25977 5.32031 3.13152 5.32031 5.43206C5.32031 7.7326 7.19207 9.60436 9.49261 9.60436C11.7931 9.60436 13.6649 7.7326 13.6649 5.43206C13.6649 3.13152 11.7935 1.25977 9.49261 1.25977ZM9.49261 8.96247C7.54607 8.96247 5.9622 7.3786 5.9622 5.43206C5.9622 3.48553 7.54607 1.90166 9.49261 1.90166C11.4391 1.90166 13.023 3.48553 13.023 5.43206C13.023 7.3786 11.4395 8.96247 9.49261 8.96247Z" fill="#A6B1BE"/>
</svg>
