<?xml version="1.0" ?><svg id="Layer_1" style="enable-background:new 0 0 512 512;" version="1.1" viewBox="0 0 512 512" xml:space="preserve" xmlns="http://www.w3.org/2000/svg" xmlns:xlink="http://www.w3.org/1999/xlink"><style type="text/css">
	.st0{fill:#FFDBD4;}
	.st1{fill:#BF6149;}
	.st2{fill:#A84835;}
	.st3{fill:#FFFFFF;}
</style><g id="XMLID_14_"><g id="XMLID_82_"><polygon class="st0" id="XMLID_86_" points="330.7,6 87.9,6 87.9,506 449.2,506 449.2,122.8   "/><polygon class="st1" id="XMLID_85_" points="330.7,6 449.2,122.8 330.7,122.8   "/><rect class="st1" height="156.1" id="XMLID_84_" width="329" x="62.8" y="298.8"/><polygon class="st2" id="XMLID_83_" points="62.8,454.9 87.9,476.1 87.9,454.9   "/></g><g id="XMLID_809_"><path class="st3" d="M200.6,382.8c0,7.7-1.7,13.9-5.2,18.6c-3.5,4.7-8.4,7-14.7,7c-2.5,0-4.7-0.5-6.6-1.4    c-1.9-1-3.6-2.3-5-4.1v24.4H153v-71.3h15.2l0.5,5.6c1.4-2.1,3.1-3.7,5.1-4.9c2-1.1,4.3-1.7,6.8-1.7c6.4,0,11.3,2.5,14.8,7.4    c3.5,4.9,5.3,11.4,5.3,19.4V382.8z M184.6,381.8c0-4.3-0.6-7.8-1.9-10.5c-1.3-2.6-3.3-3.9-6.1-3.9c-1.8,0-3.3,0.3-4.6,1    c-1.3,0.7-2.2,1.6-3,2.9v21.5c0.8,1.1,1.8,1.9,3,2.5c1.3,0.5,2.8,0.8,4.6,0.8c2.8,0,4.8-1.2,6.1-3.5c1.2-2.3,1.8-5.6,1.8-9.8    V381.8z" id="XMLID_729_"/><path class="st3" d="M212.4,381.8c0-8,1.8-14.5,5.3-19.4c3.5-4.9,8.4-7.4,14.8-7.4c2.4,0,4.5,0.5,6.4,1.6    c1.9,1.1,3.6,2.7,5.2,4.7v-28.1h16.1v74.2h-14.1l-1.1-6.3c-1.6,2.3-3.4,4.1-5.4,5.4c-2.1,1.3-4.5,1.9-7.2,1.9    c-6.3,0-11.3-2.3-14.7-7c-3.5-4.7-5.2-10.9-5.2-18.6V381.8z M228.5,382.8c0,4.2,0.6,7.4,1.8,9.8c1.2,2.3,3.3,3.5,6.2,3.5    c1.7,0,3.2-0.3,4.4-0.9c1.3-0.6,2.3-1.5,3.2-2.7v-20.8c-0.8-1.4-1.9-2.4-3.1-3.1s-2.7-1.1-4.4-1.1c-2.9,0-4.9,1.3-6.2,3.9    c-1.3,2.6-1.9,6.1-1.9,10.5V382.8z" id="XMLID_732_"/><path class="st3" d="M279.6,407.4v-40.3h-7.4v-11.1h7.4v-5.3c0-5.9,1.8-10.4,5.3-13.6c3.6-3.2,8.6-4.8,15.1-4.8    c1.2,0,2.5,0.1,3.7,0.3c1.3,0.2,2.7,0.4,4.2,0.7l-1.2,11.8c-0.9-0.2-1.7-0.3-2.3-0.4c-0.7-0.1-1.5-0.1-2.4-0.1    c-2,0-3.6,0.5-4.7,1.6s-1.6,2.5-1.6,4.5v5.3h10.2v11.1h-10.2v40.3H279.6z" id="XMLID_735_"/></g></g></svg>